AmiriTypewriter-Regular.sfdir
StartChar: uni061F
Encoding: 1567 1567 1
Width: 872
VWidth: 0
GlyphClass: 2
Flags: W
LayerCount: 2
Fore
SplineSet
412.158203125 1115.23144531 m 1,0,1
 365.376953125 1234.67285156 365.376953125 1234.67285156 217.186523438 1234.87304688 c 0,2,3
 32.173828125 1235.12402344 32.173828125 1235.12402344 -24.8916015625 1059.56835938 c 1,4,5
 -94.28515625 767.383789062 -94.28515625 767.383789062 302.178710938 688.34765625 c 2,6,-1
 352.642578125 678.298828125 l 1,7,-1
 352.642578125 324.099609375 l 1,8,-1
 227.193359375 324.099609375 l 1,9,-1
 227.193359375 576.799804688 l 1,10,11
 -239.03515625 700.80859375 -239.03515625 700.80859375 -146.942382812 1088.55761719 c 2,12,-1
 -146.400390625 1090.828125 l 1,13,-1
 -145.697265625 1093.0546875 l 2,14,15
 -61.16015625 1359.02441406 -61.16015625 1359.02441406 224.7890625 1359.1796875 c 128,-1,16
 510.73828125 1359.3359375 510.73828125 1359.3359375 554.131835938 1060.43261719 c 0,17,-1
 556.309570312 1027.32714844 l 0,18,19
 556.309570312 931.245117188 556.309570312 931.245117188 460.19921875 931.239257812 c 128,-1,20
 364.08984375 931.233398438 364.08984375 931.233398438 364.063476562 1027.32714844 c 0,21,22
 364.063476562 1095.31835938 364.063476562 1095.31835938 412.158203125 1115.23144531 c 1,0,1
371.495117188 45.076171875 m 128,-1,24
 371.495117188 -27.873046875 371.495117188 -27.873046875 298.551757812 -27.865234375 c 128,-1,25
 225.608398438 -27.8583984375 225.608398438 -27.8583984375 225.58203125 45.076171875 c 128,-1,26
 225.58203125 118.028320312 225.58203125 118.028320312 298.501953125 118.0546875 c 128,-1,23
 371.4921875 118.0546875 371.4921875 118.0546875 371.495117188 45.076171875 c 128,-1,24
EndSplineSet
EndChar
StartChar: uni0665
Encoding: 1637 1637 33
Width: 872
VWidth: 0
GlyphClass: 2
Flags: W
LayerCount: 2
Fore
SplineSet
161.331054688 351.575195312 m 0,0,1
 165.470703125 735.53125 165.470703125 735.53125 304.712890625 901.916992188 c 128,-1,2
 443.956054688 1068.30273438 443.956054688 1068.30273438 579.580078125 912.48828125 c 128,-1,3
 715.203125 756.673828125 715.203125 756.673828125 710.559570312 358.298828125 c 0,4,5
 707.830078125 124.021484375 707.830078125 124.021484375 569.513671875 27.869140625 c 128,-1,6
 431.196289062 -68.2841796875 431.196289062 -68.2841796875 295.0234375 26.6826171875 c 128,-1,7
 158.8515625 121.649414062 158.8515625 121.649414062 161.331054688 351.575195312 c 0,0,1
635.208007812 350.30078125 m 0,8,9
 638.3828125 610.091796875 638.3828125 610.091796875 539.1875 720.362304688 c 128,-1,10
 439.9921875 830.6328125 439.9921875 830.6328125 339.680664062 725.268554688 c 128,-1,11
 239.369140625 619.904296875 239.369140625 619.904296875 239.83203125 357.537109375 c 0,12,13
 240.018554688 248.044921875 240.018554688 248.044921875 338.278320312 203.598632812 c 128,-1,14
 436.5390625 159.153320312 436.5390625 159.153320312 535.23828125 202.608398438 c 128,-1,15
 633.9375 246.0625 633.9375 246.0625 635.208007812 350.30078125 c 0,8,9
EndSplineSet
EndChar
StartChar: uni0667
Encoding: 1639 1639 28
Width: 872
VWidth: 0
GlyphClass: 2
Flags: W
LayerCount: 2
Fore
SplineSet
692.352539062 1004.56835938 m 0,0,1
 701.897460938 1017.8046875 701.897460938 1017.8046875 708.7734375 1003.3671875 c 2,2,-1
 762.2109375 849.807617188 l 2,3,4
 767.20703125 836.301757812 767.20703125 836.301757812 758.9296875 827.864257812 c 0,5,6
 549.1953125 554.447265625 549.1953125 554.447265625 447.15234375 6.189453125 c 0,7,8
 442.4453125 -20.9091796875 442.4453125 -20.9091796875 423.017578125 -20.84765625 c 128,-1,9
 403.588867188 -20.787109375 403.588867188 -20.787109375 398.739257812 6.2333984375 c 0,10,11
 272.232421875 590.416992188 272.232421875 590.416992188 113.153320312 811.428710938 c 0,12,13
 105.873046875 819.256835938 105.873046875 819.256835938 108.700195312 833.357421875 c 2,14,-1
 143.680664062 991.487304688 l 2,15,16
 147.280273438 1010.32421875 147.280273438 1010.32421875 163.163085938 993.508789062 c 0,17,18
 303.287109375 831.805664062 303.287109375 831.805664062 423.392578125 341.873046875 c 1,19,20
 516.6640625 769.497070312 516.6640625 769.497070312 692.352539062 1004.56835938 c 0,0,1
EndSplineSet
EndChar
StartChar: uni066A
Encoding: 1642 1642 35
Width: 872
VWidth: 0
GlyphClass: 2
Flags: W
LayerCount: 2
Fore
SplineSet
369.657226562 816.1015625 m 128,-1,1
 369.657226562 719.290039062 369.657226562 719.290039062 272.831054688 719.290039062 c 128,-1,2
 176.01953125 719.290039062 176.01953125 719.290039062 176.01953125 816.1015625 c 128,-1,3
 176.01953125 912.913085938 176.01953125 912.913085938 272.831054688 912.913085938 c 128,-1,0
 369.578125 912.913085938 369.578125 912.913085938 369.657226562 816.1015625 c 128,-1,1
672.176757812 102.25390625 m 128,-1,5
 672.176757812 5.4423828125 672.176757812 5.4423828125 575.365234375 5.4423828125 c 128,-1,6
 478.553710938 5.4423828125 478.553710938 5.4423828125 478.553710938 102.25390625 c 128,-1,7
 478.553710938 199.065429688 478.553710938 199.065429688 575.365234375 199.065429688 c 128,-1,4
 672.09765625 199.065429688 672.09765625 199.065429688 672.176757812 102.25390625 c 128,-1,5
798.739257812 980.793945312 m 1,8,-1
 181.014648438 -55.1875 l 1,9,-1
 73.2607421875 9.060546875 l 1,10,-1
 690.985351562 1045.04199219 l 1,11,-1
 798.739257812 980.793945312 l 1,8,-1
EndSplineSet
EndChar
StartChar: uni06F6
Encoding: 1782 1782 139
Width: 872
VWidth: 0
GlyphClass: 2
Flags: W
LayerCount: 2
Back
SplineSet
514.1640625 642.34765625 m 0,0,1
 553.364257812 631.147460938 553.364257812 631.147460938 583.763671875 654.34765625 c 0,2,3
 698.1640625 742.34765625 698.1640625 742.34765625 772.563476562 769.547851562 c 0,4,5
 822.1640625 787.947265625 822.1640625 787.947265625 808.563476562 745.547851562 c 2,6,-1
 765.364257812 609.547851562 l 2,7,8
 748.563476562 558.34765625 748.563476562 558.34765625 706.1640625 539.947265625 c 0,9,10
 554.963867188 475.147460938 554.963867188 475.147460938 404.563476562 342.34765625 c 0,11,12
 261.364257812 215.947265625 261.364257812 215.947265625 152.563476562 52.748046875 c 1,13,14
 124.563476562 12.748046875 124.563476562 12.748046875 98.9638671875 21.5478515625 c 0,15,16
 79.763671875 27.947265625 79.763671875 27.947265625 99.763671875 75.947265625 c 0,17,18
 199.763671875 321.547851562 199.763671875 321.547851562 408.563476562 505.547851562 c 1,19,20
 192.563476562 584.748046875 192.563476562 584.748046875 149.364257812 689.547851562 c 0,21,22
 136.563476562 721.547851562 136.563476562 721.547851562 146.963867188 754.34765625 c 0,23,24
 177.364257812 847.147460938 177.364257812 847.147460938 241.364257812 922.34765625 c 0,25,26
 390.963867188 1098.34765625 390.963867188 1098.34765625 513.364257812 1098.34765625 c 0,27,28
 571.763671875 1098.34765625 571.763671875 1098.34765625 625.364257812 1041.54785156 c 1,29,30
 689.364257812 971.947265625 689.364257812 971.947265625 710.963867188 917.547851562 c 1,31,32
 718.963867188 895.147460938 718.963867188 895.147460938 706.963867188 888.748046875 c 0,33,34
 693.364257812 880.748046875 693.364257812 880.748046875 675.763671875 898.34765625 c 0,35,36
 621.364257812 954.34765625 621.364257812 954.34765625 506.963867188 955.947265625 c 0,37,38
 352.563476562 959.147460938 352.563476562 959.147460938 241.364257812 835.147460938 c 1,39,40
 229.364257812 823.147460938 229.364257812 823.147460938 240.563476562 809.547851562 c 0,41,42
 331.763671875 693.547851562 331.763671875 693.547851562 514.1640625 642.34765625 c 0,0,1
814.963867188 -501.65234375 m 1024,43,-1
EndSplineSet
Fore
SplineSet
366.133789062 526.703125 m 1,0,1
 125.665039062 619.43359375 125.665039062 619.43359375 140.000976562 792.883789062 c 0,2,3
 164.5546875 1103 164.5546875 1103 456.331054688 993.000976562 c 0,4,5
 488.682617188 980.548828125 488.682617188 980.548828125 488.481445312 963.948242188 c 0,6,7
 488.650390625 945.495117188 488.650390625 945.495117188 454.998046875 942.25 c 0,8,9
 385.95703125 935.58984375 385.95703125 935.58984375 333.64453125 909.689453125 c 0,10,11
 239.631835938 864.029296875 239.631835938 864.029296875 197.150390625 774.138671875 c 1,12,13
 390.940429688 638.87109375 390.940429688 638.87109375 523.935546875 694.427734375 c 1,14,15
 638.0859375 815.486328125 638.0859375 815.486328125 725.67578125 851.575195312 c 0,16,17
 737.717773438 856.537109375 737.717773438 856.537109375 736.708007812 847.91796875 c 2,18,-1
 718.681640625 694.118164062 l 2,19,20
 716.984375 679.639648438 716.984375 679.639648438 707.544921875 671.100585938 c 0,21,22
 374.833007812 370.127929688 374.833007812 370.127929688 197.16796875 8.5205078125 c 0,23,24
 173.67578125 -39.2939453125 173.67578125 -39.2939453125 151.76171875 -31.595703125 c 0,25,26
 128.56640625 -23.33984375 128.56640625 -23.33984375 137.885742188 25.986328125 c 0,27,28
 182.424804688 261.712890625 182.424804688 261.712890625 366.133789062 526.703125 c 1,0,1
EndSplineSet
EndChar
StartChar: arAin.fina
Encoding: 65577 -1 78
Width: 872
VWidth: 0
GlyphClass: 2
Flags: W
AnchorPoint: "TashkilBelow" 629 -167 basechar 0
AnchorPoint: "TashkilAbove" 615 800 basechar 0
AnchorPoint: "arMarkAbove" 615 800 basechar 0
AnchorPoint: "arMarkBelow" 629 -167 basechar 0
LayerCount: 2
Back
SplineSet
568.41796875 1061.83886719 m 1,40,-1
 656.586914062 968.66015625 l 1,41,-1
 560.083007812 875.408203125 l 1,42,-1
 472.573242188 967.25390625 l 1,43,-1
 568.41796875 1061.83886719 l 1,40,-1
EndSplineSet
Fore
SplineSet
630.909179688 589.142578125 m 0,0,1
 695.662109375 592.244140625 695.662109375 592.244140625 755.186523438 571.7109375 c 0,2,3
 820.036132812 549.344726562 820.036132812 549.344726562 849.857421875 493.440429688 c 128,-1,4
 879.678710938 437.536132812 879.678710938 437.536132812 840.806640625 363.29296875 c 0,5,6
 808.826171875 324.83203125 808.826171875 324.83203125 735.850585938 273.424804688 c 1,7,8
 801.59765625 207.9453125 801.59765625 207.9453125 924.185546875 138.659179688 c 0,9,10
 991.322265625 88.9814453125 991.322265625 88.9814453125 914.961914062 34.98046875 c 0,11,12
 869.51171875 2.83984375 869.51171875 2.83984375 823.345703125 29.42578125 c 0,13,14
 700.849609375 104.271484375 700.849609375 104.271484375 605.40625 192.916992188 c 1,15,16
 590.173828125 183.305664062 590.173828125 183.305664062 560.762695312 163.907226562 c 128,-1,17
 531.350585938 144.508789062 531.350585938 144.508789062 523.184570312 139.171875 c 0,18,19
 264.827148438 -29.0302734375 264.827148438 -29.0302734375 270.879882812 -273.079101562 c 0,20,21
 274.345703125 -412.799804688 274.345703125 -412.799804688 387.793945312 -517.9765625 c 128,-1,22
 501.243164062 -623.154296875 501.243164062 -623.154296875 666.666015625 -644.40234375 c 0,23,24
 863.749023438 -669.71484375 863.749023438 -669.71484375 1113.79492188 -593.806640625 c 0,25,26
 1142.19140625 -580.689453125 1142.19140625 -580.689453125 1148.1953125 -596.165039062 c 128,-1,27
 1154.19921875 -611.640625 1154.19921875 -611.640625 1138.0234375 -633.108398438 c 0,28,29
 1091.1640625 -696.93359375 1091.1640625 -696.93359375 1004.60546875 -745.491210938 c 0,30,31
 762.129882812 -879.110351562 762.129882812 -879.110351562 487.206054688 -756.102539062 c 128,-1,32
 212.282226562 -633.09375 212.282226562 -633.09375 200.245117188 -301.892578125 c 0,33,34
 196.586914062 -8.2060546875 196.586914062 -8.2060546875 396.34375 204.181640625 c 1,35,-1
 517.75 305.548828125 l 1,36,37
 437.948242188 407.201171875 437.948242188 407.201171875 443.1015625 471.662109375 c 0,38,39
 463.455078125 592.970703125 463.455078125 592.970703125 630.909179688 589.142578125 c 0,0,1
EndSplineSet
EndChar
StartChar: arAlef.fina
Encoding: 65596 -1 145
Width: 872
VWidth: 0
GlyphClass: 2
Flags: W
AnchorPoint: "arMarkBelow" 865.5 -72 basechar 0
AnchorPoint: "arMarkAbove" 800 1240 basechar 0
LayerCount: 2
Back
SplineSet
852.815429688 1140.13378906 m 0,0,1
 853.182617188 36.25 l 2,2,3
 853.200195312 -17.07421875 853.200195312 -17.07421875 817.853515625 -17.07421875 c 0,4,5
 774.331054688 -17.07421875 774.331054688 -17.07421875 773.106445312 36.2529296875 c 2,6,-1
 750.184570312 1034.05761719 l 2,7,8
 749.708984375 1054.74804688 749.708984375 1054.74804688 760.995117188 1067.64648438 c 2,9,-1
 833.325195312 1150.30859375 l 2,10,11
 852.111328125 1171.77832031 852.111328125 1171.77832031 852.815429688 1140.13378906 c 0,0,1
856.815429688 1219.13378906 m 0,0,1
 857.218497456 1054.96250807 857.218497456 1054.96250807 855.190429688 672.236328125 c 0,2,3
 852.832017979 227.169393776 852.832017979 227.169393776 853.182457105 151.5 c 1,4,5
 879.678630071 141.23714382 879.678630071 141.23714382 881.473187825 117 c 0,6,7
 886.39160256 50.6990310647 886.39160256 50.6990310647 863 48 c 0,8,9
 846.5 46.5 846.5 46.5 832.333007812 65.5576171875 c 0,10,11
 810.5 93 810.5 93 802.709960938 134 c 1,12,-1
 755.184570312 1081.05761719 l 2,13,14
 754.363916455 1097.41111741 754.363916455 1097.41111741 765.995117188 1114.64648438 c 2,15,-1
 839.325195312 1223.30859375 l 2,16,17
 856.947131943 1249.42116385 856.947131943 1249.42116385 856.815429688 1219.13378906 c 0,0,1
EndSplineSet
Fore
SplineSet
873.182617188 151.5 m 1,0,1
 899.678710938 141.237304688 899.678710938 141.237304688 901.473632812 117 c 0,2,3
 906.391601562 50.69921875 906.391601562 50.69921875 883 48 c 0,4,5
 866.5 46.5 866.5 46.5 832.698242188 69.376953125 c 128,-1,6
 798.896484375 92.2529296875 798.896484375 92.2529296875 791.106445312 133.252929688 c 1,7,-1
 770.184570312 1034.05761719 l 2,8,9
 769.704101562 1054.7421875 769.704101562 1054.7421875 780.995117188 1067.64648438 c 2,10,-1
 853.325195312 1150.30859375 l 2,11,12
 872.111328125 1171.77832031 872.111328125 1171.77832031 872.815429688 1140.13378906 c 2,13,-1
 873.154296875 151.494140625 l 1,14,-1
 873.182617188 151.5 l 1,0,1
EndSplineSet
EndChar
StartChar: arBeh.init
Encoding: 65563 -1 64
Width: 872
VWidth: 0
GlyphClass: 2
Flags: W
AnchorPoint: "TashkilBelow" 404 -324 basechar 0
AnchorPoint: "TashkilAbove" 618 700 basechar 0
AnchorPoint: "arMarkAbove" 618 700 basechar 0
AnchorPoint: "arMarkBelow" 404 -324 basechar 0
LayerCount: 2
Fore
SplineSet
696.407226562 186.025390625 m 1,0,1
 680.879882812 280.0234375 680.879882812 280.0234375 623.961914062 360.29296875 c 1,2,-1
 682.104492188 465.188476562 l 2,3,4
 689.217773438 477.169921875 689.217773438 477.169921875 698.712890625 463.727539062 c 0,5,6
 752.251953125 385.033203125 752.251953125 385.033203125 762.610351562 267.719726562 c 128,-1,7
 772.967773438 150.407226562 772.967773438 150.407226562 744.864257812 120.9453125 c 0,8,9
 669.041015625 4.462890625 669.041015625 4.462890625 434.25390625 -26.7705078125 c 128,-1,10
 199.465820312 -58.001953125 199.465820312 -58.001953125 28.6748046875 -5.0986328125 c 0,11,12
 -63.900390625 23.2431640625 -63.900390625 23.2431640625 -72.275390625 123.12109375 c 0,13,14
 -75.9150390625 166.517578125 -75.9150390625 166.517578125 -38.5302734375 155.654296875 c 0,15,16
 420.36328125 40.767578125 420.36328125 40.767578125 696.407226562 186.025390625 c 1,0,1
EndSplineSet
EndChar
StartChar: arDal.isol
Encoding: 65548 -1 49
Width: 872
VWidth: 0
GlyphClass: 2
Flags: W
AnchorPoint: "TashkilAbove" 543 900 basechar 0
AnchorPoint: "TashkilBelow" 568 -308 basechar 0
AnchorPoint: "arMarkBelow" 568 -308 basechar 0
AnchorPoint: "arMarkAbove" 543 900 basechar 0
LayerCount: 2
Fore
SplineSet
595.598632812 592.83984375 m 0,0,1
 589.978944418 603.364816656 589.978944418 603.364816656 595.364257812 613.81640625 c 2,2,-1
 656.438476562 732.346679688 l 2,3,4
 663.886387051 746.801270918 663.886387051 746.801270918 671.233398438 732.625 c 0,5,6
 832.976488578 459.317382812 832.976488578 459.317382812 852.360351562 246.31640625 c 0,7,8
 861.852544303 142.916992188 861.852544303 142.916992188 813.010742188 60.5888671875 c 0,9,10
 776.552289414 -1.96937316096 776.552289414 -1.96937316096 613.103515625 -25.0390625 c 0,11,12
 453.817998745 -47.520168679 453.817998745 -47.520168679 339.587890625 -18.46875 c 0,13,14
 252.242440397 3.74526420381 252.242440397 3.74526420381 271.311523438 154.094726562 c 0,15,16
 274.13671875 176.497070312 274.13671875 176.497070312 293.94140625 176.37109375 c 128,-1,17
 313.74609375 176.24609375 313.74609375 176.24609375 316.6484375 155.999023438 c 0,18,19
 324.920898438 109.703125 324.920898438 109.703125 502.928710938 110.850585938 c 128,-1,20
 680.936523438 111.998046875 680.936523438 111.998046875 787.2734375 156.174804688 c 1,21,22
 790.411736639 227.979286415 790.411736639 227.979286415 595.598632812 592.83984375 c 0,0,1
EndSplineSet
EndChar
StartChar: arGaf.isol
Encoding: 65586 -1 125
Width: 872
VWidth: 0
GlyphClass: 2
Flags: W
AnchorPoint: "arMarkAbove" 799 1247 basechar 0
AnchorPoint: "arMarkBelow" 612 -204 basechar 0
LayerCount: 2
Back
SplineSet
885 141 m 20,0,1
 861 83 861 83 784 45 c 4,2,3
 686.846679688 -2.9462890625 686.846679688 -2.9462890625 538.939453125 -25.634765625 c 4,4,5
 289.250976562 -64.130859375 289.250976562 -64.130859375 98.6748046875 -5.0986328125 c 4,6,7
 6.099609375 23.2431640625 6.099609375 23.2431640625 -2.275390625 123.12109375 c 4,8,9
 -5.7958984375 165.096679688 -5.7958984375 165.096679688 31.4697265625 155.654296875 c 4,10,11
 283.883789062 91.6962890625 283.883789062 91.6962890625 487.056640625 107.083984375 c 4,12,13
 705.7109375 122.879882812 705.7109375 122.879882812 834.180664062 211.30078125 c 5,14,15
 809.390625 338.044921875 809.390625 338.044921875 390.854492188 795.424804688 c 4,16,17
 369.337890625 818.938476562 369.337890625 818.938476562 379.309570312 896.073242188 c 4,18,19
 387.997070312 962.127929688 387.997070312 962.127929688 417.456054688 982.788085938 c 4,20,21
 599.825195312 1110.6875 599.825195312 1110.6875 1145.30761719 1407.18261719 c 4,22,23
 1159.73242188 1415.0234375 1159.73242188 1415.0234375 1159.69238281 1395.7421875 c 6,24,-1
 1159.47265625 1291.10839844 l 5,25,-1
 1150.66894531 1275.65429688 l 5,26,27
 715.13671875 1034.33691406 715.13671875 1034.33691406 468.65234375 884.130859375 c 5,28,29
 856.056640625 531.142578125 856.056640625 531.142578125 894.086914062 256.181640625 c 4,30,31
 904.423828125 187.940429688 904.423828125 187.940429688 885 141 c 20,0,1
EndSplineSet
Fore
SplineSet
815.190429688 29.072265625 m 16,0,1
 599.00525115 -27.5107409621 599.00525115 -27.5107409621 433.708190918 -32.1481075456 c 0,2,3
 222.645066372 -38.0694293125 222.645066372 -38.0694293125 112.672851562 -6.208984375 c 0,4,5
 -51.1990327806 41.2669272172 -51.1990327806 41.2669272172 -65.4453125 187.620117188 c 0,6,7
 -74.525390625 280.637695312 -74.525390625 280.637695312 -54.802734375 335.109375 c 0,8,9
 -41.2470703125 372.548828125 -41.2470703125 372.548828125 -4.3310546875 331.2421875 c 1,10,11
 -16.8134765625 226.793945312 -16.8134765625 226.793945312 33.5361328125 186.985351562 c 0,12,13
 124.9140625 113.75390625 124.9140625 113.75390625 386.922851562 117.1328125 c 0,14,15
 594.21799385 119.15642854 594.21799385 119.15642854 831.03125 185.997070312 c 1,16,17
 811.192382812 359.594100952 811.192382812 359.594100952 390.854492188 785.424804688 c 0,18,19
 367.934814578 807.096679688 367.934814578 807.096679688 379.309570312 896.073242188 c 0,20,21
 387.997409499 962.128189264 387.997409499 962.128189264 417.456054688 982.788085938 c 0,22,23
 599.825387653 1110.68709662 599.825387653 1110.68709662 1145.30761719 1407.18261719 c 0,24,25
 1159.73287261 1415.0234292 1159.73287261 1415.0234292 1159.69238281 1395.7421875 c 2,26,-1
 1159.47265625 1291.10839844 l 1,27,-1
 1150.66894531 1275.65429688 l 1,28,29
 715.13671875 1034.33691406 715.13671875 1034.33691406 468.65234375 884.130859375 c 1,30,31
 862.77172823 522.699230321 862.77172823 522.699230321 894.086914062 256.181640625 c 0,32,33
 901.851360561 190.099913459 901.851360561 190.099913459 884.235351562 123.215820312 c 0,34,35
 862.585849288 41.0201015116 862.585849288 41.0201015116 815.190429688 29.072265625 c 16,0,1
EndSplineSet
EndChar
StartChar: arHah.init
Encoding: 65564 -1 65
Width: 872
VWidth: 0
GlyphClass: 2
Flags: W
AnchorPoint: "arMarkAbove" 529 700 basechar 0
AnchorPoint: "arMarkBelow" 491 -369 basechar 0
LayerCount: 2
Back
SplineSet
252.267578125 369.592773438 m 0,0,1
 361.289260083 539.882809631 361.289260083 539.882809631 535.553710938 453.9921875 c 0,2,3
 862.384765625 292.905273438 862.384765625 292.905273438 1033.90820312 265.5546875 c 24,4,5
 1060.17373093 261.366819043 1060.17373093 261.366819043 1042.06738281 242.922851562 c 2,6,-1
 943.973632812 143 l 2,7,8
 931.750280572 130.548725463 931.750280572 130.548725463 921.5 131.609375 c 0,9,10
 783.332288516 149.949798792 783.332288516 149.949798792 531.599609375 54.7275390625 c 0,11,12
 434.350585938 17.94140625 434.350585938 17.94140625 354.235351562 3.572265625 c 0,13,14
 107.301323777 -37.9078878258 107.301323777 -37.9078878258 0.841796875 8.6455078125 c 0,15,16
 -66.5962785761 38.1353195647 -66.5962785761 38.1353195647 -72.9990234375 126 c 0,17,18
 -75.9867147148 167 -75.9867147148 167 -31.150390625 158.787109375 c 0,19,20
 355.929886826 91.4720670227 355.929886826 91.4720670227 678.561523438 248.416015625 c 1,21,22
 416.330418577 379.61784597 416.330418577 379.61784597 288.478515625 326.409179688 c 0,23,24
 258.281875372 313.842116413 258.281875372 313.842116413 247.032226562 323.45703125 c 0,25,26
 230.91796875 337.23046875 230.91796875 337.23046875 252.267578125 369.592773438 c 0,0,1
252.267578125 369.592773438 m 0,0,1
 378.91211515 551.196932809 378.91211515 551.196932809 535.553710938 473.9921875 c 0,2,3
 859.185497779 314.482131751 859.185497779 314.482131751 1033.90820312 285.5546875 c 24,4,5
 1056.19042969 283.068359375 1056.19042969 283.068359375 1042.06738281 262.922851562 c 2,6,-1
 943.973817076 123 l 2,7,8
 935.008806198 110.21210839 935.008806198 110.21210839 921.5 111.609449266 c 0,9,10
 802.993361388 123.86768792 802.993361388 123.86768792 718.306640625 108.134765625 c 0,11,12
 628.848632812 91.5146484375 628.848632812 91.5146484375 531.599609375 54.7275390625 c 128,-1,13
 434.350585938 17.94140625 434.350585938 17.94140625 354.235351562 3.572265625 c 0,14,15
 107.301323777 -37.9078878258 107.301323777 -37.9078878258 0.841796875 8.6455078125 c 0,16,17
 -66.5962785761 38.1353195647 -66.5962785761 38.1353195647 -72.9990234375 126 c 0,18,19
 -75.9867147148 167 -75.9867147148 167 -31.150390625 158.787109375 c 0,20,21
 355.929886826 91.4720670227 355.929886826 91.4720670227 678.561523438 248.416015625 c 1,22,23
 416.330418577 379.61784597 416.330418577 379.61784597 288.478515625 326.409179688 c 0,24,25
 258.281875372 313.842116413 258.281875372 313.842116413 247.032226562 323.45703125 c 0,26,27
 230.91796875 337.23046875 230.91796875 337.23046875 252.267578125 369.592773438 c 0,0,1
EndSplineSet
Fore
SplineSet
252.267578125 369.592773438 m 0,0,1
 361.289260083 539.882809631 361.289260083 539.882809631 535.553710938 453.9921875 c 0,2,3
 862.384765625 292.905273438 862.384765625 292.905273438 1033.90820312 265.5546875 c 24,4,5
 1060.17373093 261.366819043 1060.17373093 261.366819043 1042.06738281 242.922851562 c 2,6,-1
 943.973632812 143 l 2,7,8
 931.750280572 130.548725463 931.750280572 130.548725463 921.5 131.609375 c 0,9,10
 783.332288516 149.949798792 783.332288516 149.949798792 531.599609375 54.7275390625 c 0,11,12
 434.350585938 17.94140625 434.350585938 17.94140625 354.235351562 3.572265625 c 0,13,14
 107.301323777 -37.9078878258 107.301323777 -37.9078878258 0.841796875 8.6455078125 c 0,15,16
 -66.5962785761 38.1353195647 -66.5962785761 38.1353195647 -72.9990234375 126 c 0,17,18
 -75.9867147148 167 -75.9867147148 167 -31.150390625 158.787109375 c 0,19,20
 355.929886826 91.4720670227 355.929886826 91.4720670227 678.561523438 248.416015625 c 1,21,22
 416.330418577 379.61784597 416.330418577 379.61784597 288.478515625 326.409179688 c 0,23,24
 258.281875372 313.842116413 258.281875372 313.842116413 247.032226562 323.45703125 c 0,25,26
 230.91796875 337.23046875 230.91796875 337.23046875 252.267578125 369.592773438 c 0,0,1
EndSplineSet
EndChar
StartChar: arHeh.init2
Encoding: 65590 -1 129
Width: 872
VWidth: 0
GlyphClass: 2
Flags: W
AnchorPoint: "TashkilBelow" 404 -324 basechar 0
AnchorPoint: "TashkilAbove" 618 674 basechar 0
AnchorPoint: "arMarkAbove" 618 674 basechar 0
AnchorPoint: "arMarkBelow" 404 -324 basechar 0
LayerCount: 2
Fore
SplineSet
578.25 -324.92578125 m 0,0,1
 576.118239866 -192.772589745 576.118239866 -192.772589745 693.87109375 -17.6396484375 c 0,2,3
 720.494913929 21.9577607374 720.494913929 21.9577607374 746.274414062 6.3447265625 c 0,4,5
 764.327580055 -4.58768064781 764.327580055 -4.58768064781 739.478515625 -48.861328125 c 0,6,7
 600.249755859 -286.925598145 600.249755859 -286.925598145 662.25 -388.92578125 c 1,8,9
 645.344831411 -300.134552203 645.344831411 -300.134552203 734.25 -292.92578125 c 0,10,11
 808.249755859 -286.925598145 808.249755859 -286.925598145 814.25 -370.92578125 c 0,12,13
 822.916573056 -465.73649834 822.916573056 -465.73649834 758.038085938 -482.6484375 c 0,14,15
 680.249755859 -502.925598145 680.249755859 -502.925598145 632.25 -458.92578125 c 0,16,17
 579.446783469 -409.88714584 579.446783469 -409.88714584 578.25 -324.92578125 c 0,0,1
EndSplineSet
Refer: 64 -1 N 1 0 0 1 0 0 3
EndChar
StartChar: arHeh.isol
Encoding: 65560 -1 61
Width: 872
VWidth: 0
GlyphClass: 2
Flags: W
AnchorPoint: "TashkilBelow" 463.771 -232 basechar 0
AnchorPoint: "TashkilAbove" 378.771 855 basechar 0
AnchorPoint: "arMarkAbove" 378.771 855 basechar 0
AnchorPoint: "arMarkBelow" 463.771 -232 basechar 0
LayerCount: 2
Fore
SplineSet
387.362304688 584.944335938 m 1,0,-1
 443.685546875 593.557617188 l 1,1,2
 671.102539062 194.368164062 671.102539062 194.368164062 643.387695312 85.4765625 c 0,3,4
 622.18359375 18.2900390625 622.18359375 18.2900390625 512.659179688 -10.8642578125 c 128,-1,5
 403.133789062 -40.017578125 403.133789062 -40.017578125 308.056640625 -9.1201171875 c 128,-1,6
 212.979492188 21.77734375 212.979492188 21.77734375 227.533203125 101.560546875 c 0,7,8
 247.512695312 190.630859375 247.512695312 190.630859375 359.57421875 432.131835938 c 1,9,-1
 328.958984375 467.15625 l 1,10,-1
 387.362304688 584.944335938 l 1,0,-1
416.014648438 376.877929688 m 1,11,12
 359.251953125 289.008789062 359.251953125 289.008789062 310.82421875 147.234375 c 1,13,14
 438.372070312 77.2373046875 438.372070312 77.2373046875 563.758789062 177.336914062 c 1,15,16
 490.65234375 297.044921875 490.65234375 297.044921875 416.014648438 376.877929688 c 1,11,12
EndSplineSet
EndChar
StartChar: arLam.init
Encoding: 65570 -1 71
Width: 872
VWidth: 0
GlyphClass: 2
Flags: W
AnchorPoint: "TashkilBelow" 496 -271 basechar 0
AnchorPoint: "TashkilAbove" 641 848 basechar 0
AnchorPoint: "arMarkAbove" 641 848 basechar 0
AnchorPoint: "arMarkBelow" 496 -271 basechar 0
LayerCount: 2
Fore
SplineSet
749.508789062 1148.66992188 m 2,0,-1
 822.5390625 333.85546875 l 2,1,2
 843.274625478 102.504337051 843.274625478 102.504337051 752.763671875 41.2900390625 c 0,3,4
 661.190429688 -20.642578125 661.190429688 -20.642578125 431.828125 -33.07421875 c 0,5,6
 159.36328125 -46.91796875 159.36328125 -46.91796875 30.7392578125 -8.111328125 c 0,7,8
 -61.0966796875 20.248046875 -61.0966796875 20.248046875 -68.4970703125 115.936523438 c 0,9,10
 -72.0380859375 161.73046875 -72.0380859375 161.73046875 -20.80859375 150.721679688 c 0,11,12
 448.170898438 57.03125 448.170898438 57.03125 759.801757812 178.875976562 c 1,13,-1
 659.809570312 999.763671875 l 2,14,15
 657.517547361 1018.58007629 657.517547361 1018.58007629 666.403320312 1034.41503906 c 2,16,-1
 731.630859375 1150.65429688 l 2,17,18
 746.893195207 1177.85266454 746.893195207 1177.85266454 749.508789062 1148.66992188 c 2,0,-1
EndSplineSet
EndChar
StartChar: arLam.isol
Encoding: 65557 -1 58
Width: 872
VWidth: 0
GlyphClass: 2
Flags: W
AnchorPoint: "arMarkAbove" 543 1057 basechar 0
AnchorPoint: "arMarkBelow" 408 -586 basechar 0
LayerCount: 2
Back
SplineSet
889.421875 1147.41992188 m 2,0,-1
 898.313476562 44.744140625 l 2,1,2
 902.426757812 -196.047851562 902.426757812 -196.047851562 788.831054688 -270.270507812 c 0,3,4
 621.65234375 -402.451171875 621.65234375 -402.451171875 427.313476562 -435.255859375 c 128,-1,5
 232.973632812 -468.060546875 232.973632812 -468.060546875 86.7900390625 -367.814453125 c 0,6,7
 -106.572265625 -227.380859375 -106.572265625 -227.380859375 30.2177734375 199.900390625 c 0,8,9
 55.0244140625 283.79296875 55.0244140625 283.79296875 86.08984375 220.931640625 c 1,10,-1
 87.2734375 187.80078125 l 1,11,12
 33.1767578125 -27.169921875 33.1767578125 -27.169921875 73.3427734375 -135.534179688 c 0,13,14
 158.530273438 -299.364257812 158.530273438 -299.364257812 406.40625 -263.494140625 c 128,-1,15
 654.28125 -227.623046875 654.28125 -227.623046875 802.41015625 -75.4755859375 c 1,16,-1
 786.165039062 1031.15527344 l 2,17,18
 785.142578125 1056.16113281 785.142578125 1056.16113281 794.998046875 1065.31542969 c 2,19,-1
 868.708984375 1149.71972656 l 2,20,21
 887.616210938 1171.58984375 887.616210938 1171.58984375 889.421875 1147.41992188 c 2,0,-1
EndSplineSet
Fore
SplineSet
889.421875 1137.41992188 m 0,0,-1
 898.313476562 44.744140625 l 2,1,2
 900.210048889 -188.322831065 900.210048889 -188.322831065 788.831054688 -270.270507812 c 0,3,4
 605.463978645 -405.183791788 605.463978645 -405.183791788 427.313476562 -435.255859375 c 0,5,6
 229.059507919 -468.721253612 229.059507919 -468.721253612 86.7900390625 -367.814453125 c 0,7,8
 -91.8670599253 -241.092864475 -91.8670599253 -241.092864475 32 206.5 c 0,9,10
 42.7484668369 245.339519265 42.7484668369 245.339519265 73 242 c 0,11,12
 99.9674662353 239.036132812 99.9674662353 239.036132812 89.0556640625 194.400390625 c 0,13,14
 30.5154828185 -40.306640625 30.5154828185 -40.306640625 73.3427734375 -135.534179688 c 0,15,16
 149.516773361 -300.668600849 149.516773361 -300.668600849 406.40625 -263.494140625 c 0,17,18
 654.28125 -227.623046875 654.28125 -227.623046875 802.41015625 -75.4755859375 c 1,19,-1
 786.165039062 1031.15527344 l 0,20,21
 785.817888011 1054.80349102 785.817888011 1054.80349102 794.998046875 1065.31542969 c 2,22,-1
 868.708984375 1149.71972656 l 2,23,24
 889.133917411 1173.10773613 889.133917411 1173.10773613 889.421875 1137.41992188 c 0,0,-1
EndSplineSet
EndChar
StartChar: arLam.medi.1
Encoding: 65579 -1 80
Width: 872
VWidth: 0
GlyphClass: 2
Flags: W
AnchorPoint: "TashkilBelow" 858 -208 basechar 0
AnchorPoint: "TashkilAbove" 601 1175 basechar 0
AnchorPoint: "arCursive" 0 0 exit 0
AnchorPoint: "arMarkAbove" 601 1175 basechar 0
AnchorPoint: "arMarkBelow" 858 -208 basechar 0
LayerCount: 2
Back
SplineSet
548.786132812 282.6328125 m 0,0,1
 490.431640625 560.544921875 490.431640625 560.544921875 237.287109375 883.716796875 c 1,2,3
 160.012695312 830.015625 160.012695312 830.015625 76.2861328125 962.481445312 c 0,4,5
 0.0537109375 1083.09082031 0.0537109375 1083.09082031 124.84765625 1128.58984375 c 0,6,7
 194.375 1153.93945312 194.375 1153.93945312 261.544921875 1076.35839844 c 0,8,9
 521 777 521 777 597.375 370.772460938 c 0,10,11
 617.317382812 271.455078125 617.317382812 271.455078125 595.336914062 252.3359375 c 24,12,13
 561.354492188 222.77734375 561.354492188 222.77734375 548.786132812 282.6328125 c 0,0,1
EndSplineSet
Fore
SplineSet
694.568359375 1266.43359375 m 0,0,1
 695.813476562 1294.81054688 695.813476562 1294.81054688 707.737304688 1309.55859375 c 2,2,-1
 768.89453125 1396.05761719 l 2,3,4
 788.103515625 1421.3125 788.103515625 1421.3125 789.021484375 1386.66796875 c 0,5,6
 792.548828125 1268.20019531 792.548828125 1268.20019531 793.984375 1038.234375 c 128,-1,7
 795.419921875 808.268554688 795.419921875 808.268554688 799.926757812 699.500976562 c 128,-1,8
 804.43359375 590.733398438 804.43359375 590.733398438 829.806640625 429.34375 c 128,-1,9
 855.1796875 267.954101562 855.1796875 267.954101562 904.905273438 129.861328125 c 0,10,11
 923.118164062 51.7099609375 923.118164062 51.7099609375 844.950195312 55.8251953125 c 1,12,-1
 808.752929688 77.888671875 l 1,13,14
 749.887695312 261.865234375 749.887695312 261.865234375 717.5078125 542.9765625 c 1,15,16
 636.3359375 133.193359375 636.3359375 133.193359375 493.591796875 17.5224609375 c 0,17,18
 375.012695312 -70.1865234375 375.012695312 -70.1865234375 126.267578125 -91.6083984375 c 0,19,20
 105.5625 -93.068359375 105.5625 -93.068359375 100.921875 -88.5576171875 c 128,-1,21
 96.2822265625 -84.0478515625 96.2822265625 -84.0478515625 118.796875 -68.830078125 c 0,22,23
 467.985351562 131.657226562 467.985351562 131.657226562 565.551757812 306 c 0,24,25
 673 498 673 498 694.568359375 1266.43359375 c 0,0,1
EndSplineSet
EndChar
StartChar: arNoon.isol
Encoding: 65559 -1 60
Width: 872
VWidth: 0
GlyphClass: 2
Flags: W
AnchorPoint: "arMarkAbove" 475 589 basechar 0
AnchorPoint: "arMarkBelow" 464 -542 basechar 0
LayerCount: 2
Back
SplineSet
812.82421875 289.978515625 m 2,0,1
 822.556640625 309.033203125 822.556640625 309.033203125 829.904296875 290.65234375 c 0,2,3
 921.302734375 28.2763671875 921.302734375 28.2763671875 869.997070312 -155.802734375 c 1,4,5
 788.556640625 -370.622070312 788.556640625 -370.622070312 433.40625 -404.912109375 c 128,-1,6
 78.2548828125 -439.203125 78.2548828125 -439.203125 -2.537109375 -203.87890625 c 0,7,8
 -53.80078125 -25.4169921875 -53.80078125 -25.4169921875 83.9326171875 194.543945312 c 0,9,10
 106.6328125 210.219726562 106.6328125 210.219726562 129.38671875 171.282226562 c 0,11,12
 120.916992188 157.368164062 120.916992188 157.368164062 108.924804688 133.168945312 c 128,-1,13
 96.93359375 108.96875 96.93359375 108.96875 81.064453125 41.744140625 c 128,-1,14
 65.1953125 -25.48046875 65.1953125 -25.48046875 74.3818359375 -83.703125 c 0,15,16
 109.565429688 -247.220703125 109.565429688 -247.220703125 360.438476562 -251.306640625 c 128,-1,17
 611.311523438 -255.392578125 611.311523438 -255.392578125 812.311523438 -88.5078125 c 1,18,19
 787.903320312 50.19140625 787.903320312 50.19140625 739.274414062 157.498046875 c 0,20,21
 734.158203125 167.155273438 734.158203125 167.155273438 739.494140625 176.848632812 c 2,22,-1
 812.82421875 289.978515625 l 2,0,1
775.153320312 -173.915039062 m 1,0,1
 759.625976562 -79.9169921875 759.625976562 -79.9169921875 702.708007812 0.3525390625 c 1,2,-1
 760.850585938 105.248046875 l 2,3,4
 767.69921875 117.603515625 767.69921875 117.603515625 777.458984375 103.787109375 c 0,5,6
 830.998046875 25.0927734375 830.998046875 25.0927734375 841.356445312 -92.220703125 c 0,7,8
 850.927734375 -200.6328125 850.927734375 -200.6328125 823.610351562 -238.995117188 c 0,8,9
 739.91796875 -356.524414062 739.91796875 -356.524414062 513 -386.7109375 c 0,10,11
 278.211914062 -417.942382812 278.211914062 -417.942382812 107.420898438 -365.0390625 c 0,11,12
 14.845703125 -336.697265625 14.845703125 -336.697265625 6.470703125 -236.819335938 c 0,13,14
 2.9501953125 -194.84375 2.9501953125 -194.84375 40.2158203125 -204.286132812 c 0,15,16
 497.326171875 -320.111328125 497.326171875 -320.111328125 775.153320312 -173.915039062 c 1,0,1
EndSplineSet
Fore
SplineSet
812.82421875 339.978515625 m 2,0,1
 823.555664062 356.534179688 823.555664062 356.534179688 829.904296875 340.65234375 c 0,2,3
 921.302734375 78.2763671875 921.302734375 78.2763671875 869.997070312 -105.802734375 c 1,4,5
 788.556640625 -320.622070312 788.556640625 -320.622070312 433.40625 -354.912109375 c 0,6,7
 46.072265625 -393.260742188 46.072265625 -393.260742188 7.462890625 -153.87890625 c 0,8,9
 -27.8525390625 46.9951171875 -27.8525390625 46.9951171875 78 232 c 0,10,11
 91.9072265625 256.307617188 91.9072265625 256.307617188 115 241 c 0,12,13
 133.0703125 229.021484375 133.0703125 229.021484375 122 208 c 0,14,15
 54.29296875 69.2783203125 54.29296875 69.2783203125 74.3818359375 -33.703125 c 0,16,17
 105.383789062 -197.15234375 105.383789062 -197.15234375 360.438476562 -201.306640625 c 0,18,19
 611.311523438 -205.392578125 611.311523438 -205.392578125 812.311523438 -38.5078125 c 1,20,21
 783.814453125 123.424804688 783.814453125 123.424804688 739.274414062 207.498046875 c 0,22,23
 733.732421875 217.958984375 733.732421875 217.958984375 739.494140625 226.848632812 c 2,24,-1
 812.82421875 339.978515625 l 2,0,1
EndSplineSet
EndChar
StartChar: arSad.mark
Encoding: 65585 -1 124
Width: 872
VWidth: 0
GlyphClass: 4
Flags: W
AnchorPoint: "arMarkAbove" 438 0 mark 0
LayerCount: 2
Back
SplineSet
487.048828125 221.270507812 m 0,24,25
 406.34765625 278.809570312 406.34765625 278.809570312 360.881835938 224.44921875 c 0,26,27
 340.141601562 196.666992188 340.141601562 196.666992188 376.959960938 165.36328125 c 128,-1,28
 413.778320312 134.059570312 413.778320312 134.059570312 462.498046875 144 c 0,29,30
 515.5234375 167.30078125 515.5234375 167.30078125 593.279296875 210.4453125 c 0,31,32
 607.770507812 216.783203125 607.770507812 216.783203125 606.7265625 204.336914062 c 2,33,-1
 602.390625 125.66015625 l 2,34,35
 602.099609375 115.432617188 602.099609375 115.432617188 593.147460938 109.971679688 c 0,36,37
 492.545898438 59.0673828125 492.545898438 59.0673828125 276.19921875 -68.783203125 c 0,38,39
 266.459960938 -74.89453125 266.459960938 -74.89453125 265.608398438 -66.87890625 c 0,40,41
 260.267578125 19.0166015625 260.267578125 19.0166015625 325.212890625 63.6826171875 c 1,42,43
 250.297851562 116.243164062 250.297851562 116.243164062 269.255859375 186.934570312 c 0,44,45
 386.079101562 449.861328125 386.079101562 449.861328125 516.55078125 318.711914062 c 0,46,47
 529.981445312 307.665039062 529.981445312 307.665039062 530.935546875 294.732421875 c 0,48,49
 525.334960938 257.991210938 525.334960938 257.991210938 513.19921875 236.15234375 c 128,-1,50
 501.063476562 214.314453125 501.063476562 214.314453125 487.048828125 221.270507812 c 0,24,25
EndSplineSet
Fore
SplineSet
239.372070312 59.8134765625 m 26,0,1
 322.817382812 175.735351562 l 1,2,3
 330.080078125 188.21875 330.080078125 188.21875 337.912109375 173.684570312 c 2,4,-1
 359.306640625 133.98046875 l 1,5,6
 449.10546875 273.76171875 449.10546875 273.76171875 543.297851562 272.129882812 c 0,7,8
 616.374023438 270.864257812 616.374023438 270.864257812 633.13671875 211.111328125 c 0,9,10
 647.587890625 159.598632812 647.587890625 159.598632812 592.978515625 105.774414062 c 0,11,12
 512.852539062 24.888671875 512.852539062 24.888671875 381.623046875 50.9599609375 c 0,13,14
 338.595703125 59.7490234375 338.595703125 59.7490234375 314.079101562 100.33984375 c 1,15,16
 258.372070312 44.470703125 l 26,17,18
 250.276367188 36.3515625 250.276367188 36.3515625 240.372070312 42.1796875 c 0,19,20
 231.836914062 47.6064453125 231.836914062 47.6064453125 239.372070312 59.8134765625 c 26,0,1
515.4296875 210.96484375 m 0,21,22
 450.546875 210.212890625 450.546875 210.212890625 379.4921875 119.309570312 c 1,23,24
 403.921875 101.114257812 403.921875 101.114257812 485.094726562 115.330078125 c 128,-1,25
 566.267578125 129.545898438 566.267578125 129.545898438 590.83984375 158.596679688 c 0,26,27
 596.723632812 165.294921875 596.723632812 165.294921875 588.383789062 178.565429688 c 128,-1,28
 580.04296875 191.8359375 580.04296875 191.8359375 559.545898438 202.358398438 c 128,-1,29
 539.048828125 212.881835938 539.048828125 212.881835938 515.4296875 210.96484375 c 0,21,22
EndSplineSet
EndChar
StartChar: arSeen.init
Encoding: 65565 -1 66
Width: 872
VWidth: 0
GlyphClass: 2
Flags: W
AnchorPoint: "arMarkAbove" 590 700 basechar 0
AnchorPoint: "arMarkBelow" 510 -224 basechar 0
LayerCount: 2
Back
SplineSet
851.903320312 284.39453125 m 1,0,1
 885.833984375 193.455078125 885.833984375 193.455078125 858.517578125 96.1474609375 c 128,-1,2
 831.202148438 -1.16015625 831.202148438 -1.16015625 777.97265625 -2.6123046875 c 0,3,4
 664.950195312 -6.16015625 664.950195312 -6.16015625 597.079101562 41.0546875 c 1,5,6
 560.685548956 -1.17407404747 560.685548956 -1.17407404747 501.366210938 -4.53125 c 0,7,8
 336.11300242 -13.8837498127 336.11300242 -13.8837498127 301.415039062 79.8291015625 c 1,9,10
 158.761851689 -45.8860392767 158.761851689 -45.8860392767 19.4408569336 -1.13230717938 c 0,11,12
 -65.3541220846 26.1061702722 -65.3541220846 26.1061702722 -73.4386042686 122.525238037 c 0,13,14
 -77 165 -77 165 -37 154.999023438 c 0,15,16
 171.880408689 101.649644511 171.880408689 101.649644511 286.107421875 164.8046875 c 0,17,18
 302.935893311 173.257960488 302.935893311 173.257960488 353.827148438 246.557617188 c 0,19,20
 365.921875 263.252929688 365.921875 263.252929688 386.388671875 256.602539062 c 0,21,22
 407.437108267 249.763479383 407.437108267 249.763479383 395.560546875 226.459960938 c 2,23,-1
 365.765625 167.998046875 l 1,24,25
 411.337890625 138.122070312 411.337890625 138.122070312 492.729492188 137.749023438 c 0,26,27
 570.837974266 137.39101998 570.837974266 137.39101998 591.864257812 163.618164062 c 0,28,29
 593.754768101 165.976292907 593.754768101 165.976292907 642.064453125 254.86328125 c 0,30,31
 651.972596823 273.0936848 651.972596823 273.0936848 670.141601562 264.194335938 c 0,32,33
 685.86765135 256.491569314 685.86765135 256.491569314 679.30078125 232.260742188 c 2,34,-1
 659.510742188 159.23828125 l 1,35,36
 714.58984375 104.340820312 714.58984375 104.340820312 809.217773438 125.092773438 c 1,37,38
 811.160404653 147.771417406 811.160404653 147.771417406 797.6015625 196.38671875 c 0,39,40
 794.886153594 206.122831963 794.886153594 206.122831963 800.897460938 214.375 c 2,41,-1
 851.903320312 284.39453125 l 1,0,1
EndSplineSet
Fore
SplineSet
851.903320312 354.39453125 m 1,0,1
 885.833984375 263.455078125 885.833984375 263.455078125 863.518554688 131.147460938 c 128,-1,2
 841.248376012 -1.16015625 841.248376012 -1.16015625 777.97265625 -2.6123046875 c 0,3,4
 626.512285906 -6.16015625 626.512285906 -6.16015625 557.079101562 41.0546875 c 1,5,6
 521.624262847 -1.173828125 521.624262847 -1.173828125 441.366210938 -4.53125 c 0,7,8
 256.558315682 -13.8837890625 256.558315682 -13.8837890625 221.415039062 79.8291015625 c 1,9,10
 114.003495314 -31.5084252364 114.003495314 -31.5084252364 19.4408569336 -1.13230717938 c 0,11,12
 -65.3541220846 26.1061702722 -65.3541220846 26.1061702722 -73.4386042686 122.525238037 c 0,13,14
 -77.1897610513 167.263173231 -77.1897610513 167.263173231 -37 154.999023438 c 0,15,16
 115.415869034 106.370254627 115.415869034 106.370254627 196.107421875 164.8046875 c 0,17,18
 215.156873497 178.599736212 215.156873497 178.599736212 283.827148438 316.557617188 c 0,19,20
 294.274216973 337.545671172 294.274216973 337.545671172 321.388671875 329.602539062 c 0,21,22
 345.385661933 321.806985067 345.385661933 321.806985067 335.560546875 296.459960938 c 2,23,-1
 285.765625 167.998046875 l 1,24,25
 331.17876086 138.122070312 331.17876086 138.122070312 432.729492188 137.749023438 c 0,26,27
 529.853423419 137.349609375 529.853423419 137.349609375 541.864257812 163.618164062 c 0,28,29
 577.217505863 248.371517522 577.217505863 248.371517522 602.064453125 324.86328125 c 0,30,31
 609.470127433 347.255545336 609.470127433 347.255545336 634.141601562 335.194335938 c 0,32,33
 654.121951235 325.40725752 654.121951235 325.40725752 649.30078125 302.260742188 c 2,34,-1
 619.510742188 159.23828125 l 1,35,36
 681.388199334 104.340820312 681.388199334 104.340820312 809.217773438 125.092773438 c 1,37,38
 816.299609628 163.513352399 816.299609628 163.513352399 787.6015625 266.38671875 c 0,39,40
 784.59984822 277.146909207 784.59984822 277.146909207 790.897460938 284.375 c 2,41,-1
 851.903320312 354.39453125 l 1,0,1
EndSplineSet
EndChar
StartChar: arSeen.isol
Encoding: 65550 -1 51
Width: 872
VWidth: 0
GlyphClass: 2
Flags: W
AnchorPoint: "arMarkAbove" 614 700 basechar 0
AnchorPoint: "arMarkBelow" 665 -262 basechar 0
LayerCount: 2
Back
SplineSet
795.856445312 272.4296875 m 1,0,-1
 801.803710938 267.200195312 l 1,1,2
 824.666015625 182.732421875 824.666015625 182.732421875 794.547851562 91.904296875 c 0,3,4
 764.046875 -0.0751953125 764.046875 -0.0751953125 716.4765625 2.810546875 c 0,5,6
 580.741210938 11.0439453125 580.741210938 11.0439453125 566.696289062 87.7861328125 c 1,7,8
 512.779296875 15.1845703125 512.779296875 15.1845703125 439.357421875 9.51953125 c 0,9,10
 406.612304688 6.9931640625 406.612304688 6.9931640625 364.005859375 9.4609375 c 1,11,12
 344.868164062 -204.346679688 344.868164062 -204.346679688 277.331054688 -291.139648438 c 0,13,14
 147.96875 -457.384765625 147.96875 -457.384765625 -138.259765625 -453.590820312 c 0,15,16
 -433.727539062 -449.674804688 -433.727539062 -449.674804688 -445.4375 -175.358398438 c 0,17,18
 -452.92578125 0.056640625 -452.92578125 0.056640625 -368.943359375 159.958984375 c 0,19,20
 -353.47265625 189.4140625 -353.47265625 189.4140625 -332.014648438 180.153320312 c 0,21,22
 -312.3359375 171.661132812 -312.3359375 171.661132812 -323.166992188 140.901367188 c 0,23,24
 -366.276367188 18.5185546875 -366.276367188 18.5185546875 -373.059570312 -45.9541015625 c 0,25,26
 -400.016601562 -301.865234375 -400.016601562 -301.865234375 -133.654296875 -314.55859375 c 128,-1,27
 132.708007812 -327.251953125 132.708007812 -327.251953125 279.674804688 -154.323242188 c 1,28,29
 309.456054688 -39.3447265625 309.456054688 -39.3447265625 212.951171875 140.139648438 c 1,30,-1
 264.557617188 257.48828125 l 2,31,32
 272.77734375 276.1796875 272.77734375 276.1796875 284.743164062 257.107421875 c 0,33,34
 344.305664062 152.645507812 344.305664062 152.645507812 364.254882812 145.413085938 c 0,35,36
 453.588867188 113.026367188 453.588867188 113.026367188 528.668945312 165.671875 c 0,37,38
 534.11328125 169.489257812 534.11328125 169.489257812 556.509765625 208.453125 c 0,39,40
 572.866210938 236.909179688 572.866210938 236.909179688 583.908203125 251.936523438 c 0,41,42
 595.68359375 269.245117188 595.68359375 269.245117188 612.05859375 261.196289062 c 0,43,44
 629.881835938 252.434570312 629.881835938 252.434570312 621.291015625 229.202148438 c 2,45,-1
 596.227539062 161.423828125 l 1,46,47
 653.548828125 113.84765625 653.548828125 113.84765625 747.70703125 117.405273438 c 1,48,49
 751.323242188 154.708984375 751.323242188 154.708984375 737.21875 182.561523438 c 0,50,51
 733.221679688 190.455078125 733.221679688 190.455078125 740.6171875 200.623046875 c 2,52,-1
 791.608398438 270.73046875 l 1,53,-1
 795.856445312 272.4296875 l 1,0,-1
EndSplineSet
Fore
SplineSet
360.884765625 -21.6982421875 m 1,0,1
 339.8359375 -210.814453125 339.8359375 -210.814453125 277.331054688 -291.139648438 c 0,2,3
 147.968276931 -457.384765625 147.968276931 -457.384765625 -138.259765625 -453.590820312 c 0,4,5
 -433.727539062 -449.674804688 -433.727539062 -449.674804688 -445.4375 -175.358398438 c 0,6,7
 -452.92578125 0.056640625 -452.92578125 0.056640625 -368.943359375 159.958984375 c 0,8,9
 -353.47265625 189.4140625 -353.47265625 189.4140625 -332.014648438 180.153320312 c 0,10,11
 -312.3359375 171.661132812 -312.3359375 171.661132812 -323.166992188 140.901367188 c 0,12,13
 -366.276367188 18.5185546875 -366.276367188 18.5185546875 -373.059570312 -45.9541015625 c 0,14,15
 -400.016601562 -301.865234375 -400.016601562 -301.865234375 -133.654296875 -314.55859375 c 128,-1,16
 132.708007812 -327.251953125 132.708007812 -327.251953125 279.674804688 -154.323242188 c 1,17,18
 309.203964371 -39.3447265625 309.203964371 -39.3447265625 192.951171875 180.139648438 c 1,19,-1
 244.557617188 297.48828125 l 2,20,21
 254.672556304 320.488785724 254.672556304 320.488785724 264.743164062 297.107421875 c 0,22,23
 314.322135369 184.655273438 314.322135369 184.655273438 362.254882812 142.413085938 c 0,24,25
 390.394035511 117.614604153 390.394035511 117.614604153 449.729492188 117.749023438 c 0,26,27
 536.872283474 117.349609375 536.872283474 117.349609375 548.864257812 143.618164062 c 0,28,29
 575.881443457 202.707136878 575.881443457 202.707136878 609.064453125 304.86328125 c 0,30,31
 616.469726562 327.255859375 616.469726562 327.255859375 641.141601562 315.194335938 c 0,32,33
 661.121956409 305.407282356 661.121956409 305.407282356 656.30078125 282.260742188 c 2,34,-1
 626.510742188 139.23828125 l 1,35,36
 688.388671875 84.3408203125 688.388671875 84.3408203125 816.217773438 105.092773438 c 1,37,38
 823.299804688 143.513671875 823.299804688 143.513671875 794.6015625 246.38671875 c 0,39,40
 791.599577529 257.146598521 791.599577529 257.146598521 797.897460938 264.375 c 2,41,-1
 858.903320312 334.39453125 l 1,42,43
 892.833984375 243.455078125 892.833984375 243.455078125 870.518554688 111.147460938 c 128,-1,44
 848.248046875 -21.16015625 848.248046875 -21.16015625 784.97265625 -22.6123046875 c 0,45,46
 633.512695312 -26.16015625 633.512695312 -26.16015625 564.079101562 21.0546875 c 1,47,48
 528.624023438 -21.173828125 528.624023438 -21.173828125 448.366210938 -24.53125 c 0,49,50
 399.335222228 -26.5823613986 399.335222228 -26.5823613986 360.884765625 -21.6982421875 c 1,0,1
EndSplineSet
EndChar
StartChar: arTah.mark
Encoding: 65584 -1 123
Width: 872
VWidth: 0
GlyphClass: 4
Flags: W
AnchorPoint: "arMarkAbove" 438 0 mark 0
LayerCount: 2
Back
SplineSet
336.497070312 514.420898438 m 1,0,1
 368.686523438 548.072265625 368.686523438 548.072265625 371.764648438 549.043945312 c 1,2,3
 401.463867188 191.125 401.463867188 191.125 378.227539062 93.5888671875 c 1,4,5
 481.456054688 207.623046875 481.456054688 207.623046875 569.858398438 206.698242188 c 0,6,7
 602.805664062 207.615234375 602.805664062 207.615234375 621.319335938 174.505859375 c 128,-1,8
 639.83203125 141.395507812 639.83203125 141.395507812 623.565429688 107.698242188 c 0,9,10
 563.61328125 -20.734375 563.61328125 -20.734375 273.186523438 13.6201171875 c 0,11,12
 260.641601562 15.4970703125 260.641601562 15.4970703125 219.362304688 64.5966796875 c 0,13,14
 216.086914062 67.8623046875 216.086914062 67.8623046875 217.04296875 71.0029296875 c 128,-1,15
 217.999023438 74.142578125 217.999023438 74.142578125 223.024414062 73.0224609375 c 0,16,17
 277.741210938 61.3056640625 277.741210938 61.3056640625 348.397460938 58.4091796875 c 0,18,19
 350.068359375 60.52734375 350.068359375 60.52734375 353.194335938 64.205078125 c 128,-1,20
 356.3203125 67.8818359375 356.3203125 67.8818359375 357.403320312 69.2021484375 c 0,21,22
 348.819335938 336.328125 348.819335938 336.328125 336.497070312 514.420898438 c 1,0,1
550.053710938 155.879882812 m 0,23,24
 465.751953125 156.515625 465.751953125 156.515625 365.729492188 56.7099609375 c 1,25,26
 535.758789062 54.490234375 535.758789062 54.490234375 597.051757812 113.475585938 c 1,27,28
 590.48046875 155.623046875 590.48046875 155.623046875 550.053710938 155.879882812 c 0,23,24
487.048828125 221.270507812 m 0,24,25
 406.34765625 278.809570312 406.34765625 278.809570312 360.881835938 224.44921875 c 0,26,27
 340.141601562 196.666992188 340.141601562 196.666992188 376.959960938 165.36328125 c 128,-1,28
 413.778320312 134.059570312 413.778320312 134.059570312 462.498046875 144 c 0,29,30
 515.5234375 167.30078125 515.5234375 167.30078125 593.279296875 210.4453125 c 0,31,32
 607.770507812 216.783203125 607.770507812 216.783203125 606.7265625 204.336914062 c 2,33,-1
 602.390625 125.66015625 l 2,34,35
 602.099609375 115.432617188 602.099609375 115.432617188 593.147460938 109.971679688 c 0,36,37
 492.545898438 59.0673828125 492.545898438 59.0673828125 276.19921875 -68.783203125 c 0,38,39
 266.459960938 -74.89453125 266.459960938 -74.89453125 265.608398438 -66.87890625 c 0,40,41
 260.267578125 19.0166015625 260.267578125 19.0166015625 325.212890625 63.6826171875 c 1,42,43
 250.297851562 116.243164062 250.297851562 116.243164062 269.255859375 186.934570312 c 0,44,45
 386.079101562 449.861328125 386.079101562 449.861328125 516.55078125 318.711914062 c 0,46,47
 529.981445312 307.665039062 529.981445312 307.665039062 530.935546875 294.732421875 c 0,48,49
 525.334960938 257.991210938 525.334960938 257.991210938 513.19921875 236.15234375 c 128,-1,50
 501.063476562 214.314453125 501.063476562 214.314453125 487.048828125 221.270507812 c 0,24,25
EndSplineSet
Fore
SplineSet
404.352539062 357.942382812 m 1,0,1
 413.635742188 161.901367188 413.635742188 161.901367188 397.770507812 103.588867188 c 1,2,3
 494.520507812 229.4765625 494.520507812 229.4765625 579.401367188 226.698242188 c 0,4,5
 620.54296875 225.3515625 620.54296875 225.3515625 635.142578125 188.166015625 c 0,6,7
 656.362304688 139.698242188 656.362304688 139.698242188 633.108398438 92.6982421875 c 0,8,9
 603.208984375 32.265625 603.208984375 32.265625 543.54296875 5.7392578125 c 0,10,11
 450.504882812 -35.6240234375 450.504882812 -35.6240234375 282.729492188 -6.3798828125 c 0,12,13
 265.990234375 -3.4619140625 265.990234375 -3.4619140625 228.905273438 64.5966796875 c 0,14,15
 223.172851562 75.1162109375 223.172851562 75.1162109375 232.567382812 73.0224609375 c 0,16,17
 288.271484375 61.3056640625 288.271484375 61.3056640625 353.940429688 58.4091796875 c 1,18,-1
 346.93359375 324.508789062 l 1,19,-1
 404.352539062 357.942382812 l 1,0,1
559.596679688 155.879882812 m 0,20,21
 475.294921875 156.515625 475.294921875 156.515625 375.272460938 56.7099609375 c 1,22,23
 545.301757812 54.490234375 545.301757812 54.490234375 606.594726562 113.475585938 c 1,24,25
 600.0234375 155.623046875 600.0234375 155.623046875 559.596679688 155.879882812 c 0,20,21
EndSplineSet
EndChar
